<svg xmlns="http://www.w3.org/2000/svg" viewBox="0 0 288 288"><defs><style>.cls-1{fill:#f58120;}.cls-2{fill:#fff;}</style></defs><title>advanced-writing</title><g id="Layer_2" data-name="Layer 2"><g id="Layer_1-2" data-name="Layer 1"><g id="IjJAyC.tif"><rect class="cls-1" width="288" height="288"/><path class="cls-2" d="M128.83,217.86q.08-21.8.16-43.61c0-6-.08-12,0-18,0-2.14-.63-2.79-2.78-2.79-6.86,0-13.74.41-20.56-1.08a41.56,41.56,0,0,1,9.14-82.11c27-.06,54,0,81-.1,2.73,0,3.58.71,3.43,3.45-.23,4.14-.17,8.31,0,12.46.08,2.25-.58,3.11-2.92,3-4-.17-8.1.15-12.13-.11-2.95-.2-3.61.78-3.6,3.64q.15,57.4.07,114.79,0,5.25,0,10.5h-19c.05-1,.15-2,.15-2.94q0-61.16,0-122.31c0-.44,0-.88,0-1.31.16-1.66-.5-2.38-2.24-2.32a53.81,53.81,0,0,1-7.86,0c-3.26-.36-3.92.88-3.91,4q.16,62.47.07,124.93ZM129,111.8c0-6.66-.11-13.32.06-20,.06-2.51-.76-3.24-3.17-3.09-4,.25-8.07.11-12.1.34a22.77,22.77,0,0,0-4.38,44.87c5.57,1.44,11.3.3,16.94.68,2.27.15,2.72-.82,2.68-2.86C128.92,125.11,129,118.45,129,111.8Z"/><path d="M136.46,221.47q.08-21.8.16-43.61c0-6-.08-12,0-18,0-2.14-.63-2.79-2.78-2.79-6.86,0-13.74.41-20.56-1.08a41.56,41.56,0,0,1,9.14-82.11c27-.06,54,0,81-.1,2.73,0,3.58.71,3.43,3.45-.23,4.14-.17,8.31,0,12.46.08,2.25-.58,3.11-2.92,3-4-.17-8.1.15-12.13-.11-2.95-.2-3.61.78-3.6,3.64q.15,57.4.07,114.79,0,5.25,0,10.5h-19c.05-1,.15-2,.15-2.94q0-61.16,0-122.31c0-.44,0-.88,0-1.31.16-1.66-.5-2.38-2.24-2.32a53.81,53.81,0,0,1-7.86,0c-3.26-.36-3.92.88-3.91,4q.16,62.47.07,124.93Zm.16-106.07c0-6.66-.11-13.32.06-20,.06-2.51-.76-3.24-3.17-3.09-4,.25-8.07.11-12.1.34A22.77,22.77,0,0,0,117,137.55c5.57,1.44,11.3.3,16.94.68,2.27.15,2.72-.82,2.68-2.86C136.55,128.72,136.62,122.06,136.62,115.4Z"/></g></g></g></svg>