<svg xmlns="http://www.w3.org/2000/svg" xmlns:xlink="http://www.w3.org/1999/xlink" viewBox="0 0 1942.5 420"><defs><style>.cls-1{fill:url(#linear-gradient);}</style><linearGradient id="linear-gradient" x1="971.25" y1="420" x2="971.25" gradientUnits="userSpaceOnUse"><stop offset="0" stop-color="#00072c"/><stop offset="1" stop-color="#1b1464"/></linearGradient></defs><title>city</title><g id="Layer_2" data-name="Layer 2"><g id="Layer_1-2" data-name="Layer 1"><polygon class="cls-1" points="0 420 0 320 10 320 10 300 30 300 30 140 30 135 20 135 20 120 70 120 70 105 125 105 125 120 175 120 175 135 169 135 168.75 200 179 200 180 175 215 175 215 155 275 155 275 173 275 175 312 175 312.5 238 316 238 316.25 225 351 225 351.25 205 365 205 365 185 385 185 385 220 395 220 395 89 417 88.75 417 75 430 75 450 68.75 450 60 460 60 460 70 480 80 480 86 510 102.5 510 211 517 211.25 517 190 585 190 585 230 591 230 591.25 205 605 205 605 230 609 230 620 215 640 215 640 343 650 353.75 650 165 675 165 675 145 725 145 725 95 739 70 739 55 755 55 755 70 770 85 770 136 775 136.25 785 125 810 125 810 175 835 198 837 198 850 190 866 190 866.25 174 880 174 880 190 894 190 895 90 908.75 63.75 910 10 920 10 921.25 57.5 932.5 75 940 70 969 70 1000 102.5 1000 175 1015 175 1015 204 1019 207.5 1019 220 1025 220 1025 115 1030 115 1030 65 1035 65 1050 25 1050 0 1055 0 1055 25 1065 44 1110 44 1110 95 1135 95 1135 125 1180 125 1180 155 1205 155 1210 155 1210 210 1216 210 1215 140 1270 140 1270 158 1270 160 1285 160 1285 238 1291.25 229 1301 229 1301.25 240 1335 240 1335 225 1341 220 1341 205 1347 205 1347.5 223 1360 223 1372.5 260 1385 235 1425 218.75 1425 215 1460 215 1460 175 1495 175 1495 215 1505 215 1505 225 1526 225 1525 115 1541 115 1550 84 1560 118 1570 118 1570 250 1605 250 1605 235 1620 235 1620 253 1665 252.5 1665 130 1760 130 1760 230 1805 230 1805 200 1824 200 1825 165 1836 150 1837 147.5 1837 130 1845 130 1845 136 1851 141.25 1851 150 1880 165 1880 200 1905 200 1905 60 1942 60 1942.5 303.75 1941.25 418.75 0 420"/></g></g></svg>