<svg id="Layer_1" data-name="Layer 1" xmlns="http://www.w3.org/2000/svg" xmlns:xlink="http://www.w3.org/1999/xlink" viewBox="0 0 1148 1148.57"><defs><style>.cls-1,.cls-2,.cls-3,.cls-4{stroke:#fff;}.cls-1,.cls-2,.cls-3,.cls-4,.cls-5{stroke-miterlimit:10;}.cls-1{fill:url(#linear-gradient);}.cls-3{fill:#fff;}.cls-4{fill:url(#linear-gradient-2);}.cls-5{fill:url(#linear-gradient-3);stroke:url(#linear-gradient-4);}.cls-6{fill:url(#linear-gradient-5);}.cls-7{fill:url(#linear-gradient-6);}.cls-8{fill:url(#linear-gradient-7);}.cls-9{fill:url(#linear-gradient-8);}.cls-10{fill:url(#linear-gradient-9);}.cls-11{fill:url(#linear-gradient-10);}.cls-12{fill:url(#linear-gradient-11);}.cls-13{fill:url(#linear-gradient-12);}.cls-14{fill:url(#linear-gradient-13);}.cls-15{fill:url(#linear-gradient-14);}.cls-16{fill:url(#linear-gradient-15);}.cls-17{fill:url(#linear-gradient-16);}</style><linearGradient id="linear-gradient" x1="-570.67" y1="1387.42" x2="1829.33" y2="1387.42" gradientUnits="userSpaceOnUse"><stop offset="0" stop-color="#fff"/><stop offset="0" stop-color="#f37e01"/><stop offset="1" stop-color="#ffbe18"/><stop offset="1"/></linearGradient><linearGradient id="linear-gradient-2" x1="1049.98" y1="803.23" x2="1077.48" y2="803.23" xlink:href="#linear-gradient"/><linearGradient id="linear-gradient-3" x1="473.91" y1="657.45" x2="486.91" y2="657.45" xlink:href="#linear-gradient"/><linearGradient id="linear-gradient-4" x1="473.03" y1="657.34" x2="487.41" y2="657.34" xlink:href="#linear-gradient"/><linearGradient id="linear-gradient-5" x1="1052.58" y1="941.57" x2="1069.56" y2="941.57" xlink:href="#linear-gradient"/><linearGradient id="linear-gradient-6" x1="1082.26" y1="974.85" x2="1095.94" y2="974.85" xlink:href="#linear-gradient"/><linearGradient id="linear-gradient-7" x1="1096.15" y1="1012.22" x2="1105.87" y2="1012.22" xlink:href="#linear-gradient"/><linearGradient id="linear-gradient-8" x1="953.94" y1="702.52" x2="965.68" y2="702.52" xlink:href="#linear-gradient"/><linearGradient id="linear-gradient-9" x1="1067.52" y1="936.74" x2="1074.07" y2="936.74" xlink:href="#linear-gradient"/><linearGradient id="linear-gradient-10" x1="829.23" y1="606.75" x2="834.55" y2="606.75" xlink:href="#linear-gradient"/><linearGradient id="linear-gradient-11" x1="962.65" y1="633.23" x2="968.14" y2="633.23" xlink:href="#linear-gradient"/><linearGradient id="linear-gradient-12" x1="945.48" y1="590.92" x2="951.87" y2="590.92" xlink:href="#linear-gradient"/><linearGradient id="linear-gradient-13" x1="1036.47" y1="832" x2="1043.64" y2="832" xlink:href="#linear-gradient"/><linearGradient id="linear-gradient-14" x1="1088.84" y1="990.87" x2="1094.74" y2="990.87" xlink:href="#linear-gradient"/><linearGradient id="linear-gradient-15" x1="1100.43" y1="977.9" x2="1102.91" y2="977.9" xlink:href="#linear-gradient"/><linearGradient id="linear-gradient-16" x1="829.82" y1="560.65" x2="832.82" y2="560.65" xlink:href="#linear-gradient"/></defs><title>profile_pic2@3x-100</title><path class="cls-1" d="M377.33,2887.42h-948v-3000h2400v3000h-954c6.64-18.5,13.89-36.8,19.8-55.52,21.54-68.3,41.85-137,57.85-206.82,8.86-38.71,13.63-78.07,19.28-117.29,3.84-26.68,6.89-53.48,10.57-80.19a26.78,26.78,0,0,1,4-11,41.26,41.26,0,0,0,6.79-18.54c1.41-11.37,3-22.72,4.59-34.19,7.34,8.72,13.88,18,21.92,25.61,7.88,7.49,13.19,18.1,23.16,22.21l9.42-10.63-13.48,2.41-5.22-14c6.57-5.23,12.85-10.63,19.53-15.48,13.67-9.92,26.37-21.21,41.7-28.78,6.91-3.41,11.47-9.47,15.33-16.46-4.31.66-8.58,1.53-11.95,3.76-7.19,4.78-14.08,10.06-20.78,15.5-13.43,10.91-25.91,23.13-42.12,30.11-3.48,1.5-7.27,2.28-10.91,3.39l-1.43-2.14c4.32-4.81,8-10.44,13.12-14.2s10.53-6.59,12.51-13.37c.52-1.8,3.41-2.9,5.21-4.32,5.43-4.3,10.79-8.68,16.29-12.89,4.15-3.18,8.39-6.27,12.74-9.16,4.67-3.1,10-5.41,14.19-9,5-4.26,9.19-9.54,13.79-14.32,4.8-5,7.18-10.49,3.68-17.16-2.76-5.27-5.33-10.73-8.75-15.56-3.86-5.44-6.08-10.74-4.77-17.62a43.46,43.46,0,0,0-2.06-24.4c-1.1-2.79-2.34-5.52-3.44-8.31-3.42-8.71-3-9.59,4.56-14.67,6.32-4.27,12.21-9.18,18.52-13.47,5.36-3.64,6.18-7.93,3.71-13.7-5-11.77-9.83-23.66-14.63-35.53-5.81-14.35-11.65-28.69-17.22-43.14a71.71,71.71,0,0,1-3.23-12.53c-1-5.34,3.22-12.18-4.7-15.55-.48-.21,0-2.49-.11-3.79-.4-4.64-.15-9.48-1.43-13.86-3.31-11.35-7.62-22.28-7.89-34.5-.16-7.37-4.74-14.42-2.84-22.36.4-1.67-.88-3.81-1.57-5.67-3.49-9.33-7.4-18.52-10.44-28-2.12-6.6-2.32-13.87-4.77-20.3s-6.41-11.88-.5-18.27c.61-.66.11-2.58-.22-3.82-1.11-4.17-1.94-8.5-3.67-12.42-7.62-17.29-7.77-36.46-13.87-54.13a10.88,10.88,0,0,1-.07-5.94c2.11-8.15-2-14.81-4.72-21.88-1.5-3.92-3.23-8-3.41-12.12-.84-19-1.27-37.94-9.17-55.76-.9-2-.56-4.59-.91-6.89-2.69-17.72-4.75-35.56-8.29-53.11-3.48-17.24-8.54-34.1-10.35-51.77-.82-8-5.12-15.61-7.69-23.44a84.37,84.37,0,0,1-3.11-11.35c-1.87-10.42-5.35-20-13.77-27-4.62-3.8-6.51-8.33-5.44-14.06a18.23,18.23,0,0,0-2.95-14.29c-3.65-5.21-3.37-11-1.66-16.33,5.11-15.72,9.86-31.7,16.77-46.64s16.46-28.45,24.41-42.84,15.85-29.1,18.2-46c1.79-12.84,4.23-25.58,6.48-38.35a280.94,280.94,0,0,0,1.61-83.95c-2.64-21.09-9.25-41.66-13.7-62.54-1.62-7.62-4.07-15.08-1.46-23.39,2.35-7.46,3.17-15.55,3.64-23.43.79-13.3-1.78-26.33-4.76-39.26-.92-4-3.19-8.27.53-12.08,14,1.56,21.86-2.43,27.22-14.81,2.07-4.79,4.08-10.41,3.53-15.36-.86-7.77,2-13.39,6.35-19,1.84-2.33,3.35-4.92,5.09-7.52l-4.78-6.36-5.4,4.21-2.58-8.9-4.57,6.24c-7.62-4.18-9.46-7-6.2-10.15,7.8-7.59,15-16.79,26.08-19.31,10.57-2.4,19.28-6.77,26-15.22.51-.64,1.72-.71,2.8-1.11a32.23,32.23,0,0,1,3,2.65,48.26,48.26,0,0,1,3.69,4.65c5.51,8,10.8,7.68,15.34-1,3.93-7.51,7.19-14.76,7.05-24-.16-10.67,3.32-21.37,4.88-32.11.66-4.53,1.81-10.09-3.37-12.55s-9.38-9-16.91-4.23c-3,1.93-7.09.58-9.9-2.53-1.73-1.91-3.73-3.57-5.62-5.34,1.54-5.52-1.23-12.25,5-15.76,7.08,2.22,10.8,7.08,11.39,13.7,3.21,0,6.07-.61,8.5.15,3.09,1,5.72,3.34,8.77,4.55,1.65.65,4.31.84,5.52-.08s1.85-3.76,1.32-5.24c-2.43-6.75-1.75-14.59-7.65-20.21-1.92-1.82-2.27-5.29-3.26-7.81,6.45-5.91,6.21-13.27,6.79-19.85l-11.53-8.81c.5-2.31.55-4.06,1.25-5.5,3.6-7.42,2-13.33-4.42-18.45-2.24-1.78-3.85-4.5-5.35-7-5.74-9.73-6-20.35-3.89-31,1.34-6.61,1.07-12.43-3-18q-7.69-10.45-15.05-21.14c-6.53-9.52-15.18-13.32-26.7-11.27-4.34.77-8.94.13-14.16.13-5.2,4.16-12,4.51-19.12-.34a74.57,74.57,0,0,1-25-29.17c-.6-1.22-.37-2.86-.58-4.78l24.95,8.4c-.7-2.31-.72-3.39-1.27-3.95a9,9,0,0,0-3.28-2.15c-2.19-.76-4.56-1-6.72-1.81-8.19-3.06-13.66-8.7-7-19,8.76-13.55,9.4-28.88,1.38-43.65-8.32-15.31-19.22-28.76-31.51-41-7.84-7.77-13.85-16.13-14.73-27.37-.79-10.11-4.7-19.26-8.13-28.6a129.35,129.35,0,0,1-5-17.21c-1.88-8.72-6-16.06-11.6-22.91-2.88-3.55-6.31-7.58-7-11.8-2.15-13.15-9.1-24.25-13.87-36.26-3.19-8-6.68-16-9.93-24-2.22-5.46-4.23-11-6.38-16.49-2.41-6.14-4.45-12.46-7.4-18.33-3.86-7.7-9-14.71-10.2-23.63-2.71-21-8.88-40.59-21.39-58.1-6.47-9.06-13-18.54-17-28.8S830,298.25,823.5,290.06c-13.59-17.19-27.76-34-42.27-50.38a166.62,166.62,0,0,0-34.6-29.85c-13.83-9-29.05-12.8-44-18a105.47,105.47,0,0,0-41.33-5.36,101.72,101.72,0,0,1-23.72-1.3c-14.58-2.54-29.16-3-43.53,1.43-13,4-26.24,7.42-38.9,12.32-22,8.53-42.94,19.21-61.27,34.6-17.43,14.63-32,31.8-46.47,49.19-4,4.86-8.87,9.37-11.65,14.89-6.41,12.75-12.59,25.74-17.38,39.15a489.38,489.38,0,0,0-14.12,47.88c-3.17,12.89-5.67,26.17-1.21,39.43,4,11.8,6.27,23.68,3.7,36.19-.65,3.18.17,6.63,0,9.94-.62,9.48.13,18.95-3.18,28.34-2.55,7.22-7.79,14-5.57,22.72.5,1.94-1.91,4.7-3.15,7-1,1.92-2.5,3.61-3.51,5.54-6.75,12.94-13.2,26-20.21,38.83-3.7,6.74-7.86,13.11-8.19,21.15A17,17,0,0,1,361,600.4c-3.6,7.16-8,14-11,21.34-3.86,9.51-6.51,19.5-10,29.19-1.75,4.94-5.88,9.7-5.8,14.49.18,10.5-5.27,18.66-9.17,27.37-2.82,6.3-4.91,12.25-3.88,19.11.64,4.28,1.59,8.56,1.73,12.86.13,3.89.48,8.43-1.24,11.61-5.6,10.32-12.7,19.85-23.23,25.55-6.65,3.59-10.72,8.81-13.71,15.2-6.05,13-11.31,26.34-18,39-5.2,9.85-5.34,18.89-.09,28.39.24.44-.19,1.26-.42,2.58-12,6.82-23.78,15-39.06,14.36a10,10,0,0,0-5.52,1.89c-8.93,6-13.06,15.56-17.37,24.85-2.34,5-3.54,10.71-6.34,15.44-4.18,7-9.49,13.42-14,20.26-9.48,14.26-18.79,28.63-28.15,43-5.38,8.23-10.34,16.77-16.21,24.63a96.54,96.54,0,0,0-12.61,22c-2.32,5.78-5.69,11.15-8.79,16.6-5.47,9.6-12.26,18.48-13,30.29-.24,4.08-2.9,8-4.32,12-3.46,9.9-7,19.77-10.23,29.74-6,18.45-11.33,37.17-22.52,54l3.29,6.71c6.69,2.34,12,3.32,16.33,5.86,38.28,22.26,76.57,44.51,114.5,67.36,26.21,15.79,51,33.9,79.42,45.94,7,3,7.8,7.28,4.29,14.39-3.67,7.44-6.4,15.36-10.22,22.71-3,5.79-7,11.1-10.65,16.52-4.77,7-10.53,13.39-12.68,22-1.51,6-3.31,12-5.4,17.92-2.31,6.52-5.61,12.73-7.56,19.34-3.66,12.36-6.64,24.92-10,37.39-.51,1.93-1.38,3.76-1.86,5.7-2.09,8.34-4.11,16.7-6.14,25.06-.47,1.93-.81,3.91-1.37,5.81-3.52,12-7,24.1-10.67,36.1-4.69,15.44-9.08,31-14.45,46.19-3.42,9.66-10,18.41-12.24,28.23-2.23,9.61-8.23,15.54-13.84,22.45s-12.15,13.75-15.26,21.79A106.65,106.65,0,0,1,132.08,1658c0,5.7-.19,9.94,0,14.16.31,5.62-.29,11.7,1.7,16.71,3.55,8.93,1.65,19.27,7.65,27.41.53.71.21,2,.54,2.92,1.89,5.22,3.84,10.43,5.8,15.62,1.16,3.06,2.53,6,3.54,9.15,1.44,4.41,2.7,8.89,3.91,13.38.59,2.21,1.67,4.67,1.2,6.71-1.87,8.23,2.22,14.9,4.95,22,3.68,9.57,7.18,19.21,10.67,28.86a7.45,7.45,0,0,1,.45,3.92c-2.08,9.31.3,17.51,5.38,25.37,1.52,2.36,2.8,5.94,2.15,8.43-1.89,7.29,4.71,14.1.72,21.33-.3.54.79,1.75,1,2.7q1.38,5.21,2.62,10.46c.67,2.85,1.11,5.77,1.91,8.59,1.37,4.78,3.52,9.4,4.35,14.25,2.47,14.32,4.43,28.73,6.67,43.09a9.1,9.1,0,0,0,1.7,4.47c4.44,5,9.36,9.74,5.32,17.43-.47.89.37,2.57.81,3.81,4.48,12.44,10.1,24.52,11.62,37.87a23.76,23.76,0,0,0,1,2.82c1.29,5.1,2.36,10.27,3.81,15.32,3.1,10.8,5.46,21.94,9.87,32.2a81.51,81.51,0,0,1,6.09,25.83,54.66,54.66,0,0,0,4,17.26c4.37,10.37,10.26,20.17,11.69,31.7.34,2.78,2.31,5.45,3.85,8,2.87,4.71,4.78,9.57,3.31,15.16-1.1,4.19.33,7.56,2.34,11.29,4.7,8.73,9.48,17.55,12.82,26.85,5.63,15.66,11,31.28,21.61,44.51,6.61,8.27,12.9,16.81,19.39,25.18,2.69,3.46,5.94,4.92,10.53,3.47,1.9-.6,4.44,0,6.46.72,4.63,1.62,9,4.34,13.69,5.36,13.1,2.82,24.9,8.79,36.74,14.6,11,5.4,12.31,10.29,7.71,21.69a15.56,15.56,0,0,0-.88,8.47c2.12,10.32,4.67,20.56,7.24,30.78a27.49,27.49,0,0,0,3.21,8.2c5.42,8.37,11.32,16.42,16.73,24.79,3.21,5,6.63,9.91,6.34,16.46-.08,1.75,2.05,5,3.45,5.17,8.42,1,11.29,7.57,14.67,13.62,5.29,9.45,10.39,19,15.38,28.16,5.06-.34,10-5,12.53,1s5.61,10.22,11.93,12.32c1.52.5,3.14,3.81,2.9,5.58s-2.41,4.09-4.26,4.82c-2.31.9-5.17.54-7.78.52-7.36,0-10.68,3.79-9.7,11.2.58,4.38,1.91,8.78.33,14.11-2.92-1.91-5.25-3.15-7.24-4.78q-24.71-20.29-49.31-40.71c-5.49-4.55-10-4.76-17.31.1,2,2.21,3.63,4.75,5.91,6.31,12.34,8.45,24.91,16.56,37.27,25q9.89,6.74,19.3,14.16c3.58,2.82,7.14,5.62,5.2,11.65-1.18,3.65,1.73,5.4,5.43,3.23,2.89-1.71,5-2.46,8.13-.67,9,5.08,18.18,9.74,27.2,14.72a21.71,21.71,0,0,1,5.45,4.32c3.58,3.92,3.2,6.89-1.2,9.88-11.26,7.65-22.94,10.11-35.7,3.33-6.91-3.68-7.08-3.36-5.07-11,1.67-6.34-.1-9.19-6.82-10.33-3.2-.54-6.5-.48-10.14-.71l-.47-6.75c-4,1.21-8.36,1.41-10.9,3.66-1.72,1.52-.91,5.91-1.31,9.71-3.24-1.55-6.56-3-9.7-4.68-6.39-3.51-12.69-7.2-19-10.81-10.27-11-22.6-19.23-35.79-26.28-7.92-7.2-9.87-8-17.5-7.43,8.36,6,9.82,6.56,17.75,7.2,1.87,2.15,3.45,4.7,5.68,6.39,6.81,5.14,13.79,10.05,20.86,14.84a102.6,102.6,0,0,0,9.27,5c3,5,5.48,10.38,9.06,14.9,3,3.83,4.36,7.22,2,11.63a4.5,4.5,0,0,1,1-.38c-7.63,2-7.42,1.93-10.76-5-.74-1.52-3.61-2-5.52-3-6.66-6.23-6.81-6.27-12.74-2.79,3.23,6.72,8.62,2.15,13,2.52l-9,7.46,5.52,7.47c-7.27,3.4-14.29,1.05-21.75-7.07l6.66-5c-6-8.38-9.09,2.32-13.59,1.35-3.82-8.46-10.84-12-19.17-14.1-7-1.75-14.53-2.88-20.77-6.24-14.35-7.71-28-16.81-42.08-25a67.56,67.56,0,0,1-24.56-24.29c-18.17-30.19-40.37-58-53.76-91-.11-.27-.51-.42-1.4-1.12a31.53,31.53,0,0,0,.57,4.22c6.69,23,13.54,45.93,20.11,68.95,8.41,29.46,16.95,58.89,24.79,88.5,13.14,49.64,28.3,98.63,47.39,146.3,11,27.51,23.77,54.33,34.54,81.93C348.55,2808.58,362.7,2848.09,377.33,2887.42Zm-49.53-385.33c-4.25-6-10.63-7.13-17.83-6Zm781.82-125.27,1.22,1.57c2.67-1.57,6.16-2.07,6.71-6.51Zm-8.17-7.94.7,1.15a10.12,10.12,0,0,0,2.7-1.37,20.16,20.16,0,0,0,2.27-3.17l-1-.8Z"/><path class="cls-2" d="M377.33,2887.42c-14.62-39.33-28.77-78.84-44-117.93-10.77-27.6-23.52-54.42-34.54-81.93-19.09-47.68-34.26-96.66-47.39-146.3-7.84-29.61-16.38-59-24.79-88.5-6.57-23-13.42-46-20.11-68.95a31.53,31.53,0,0,1-.57-4.22c.9.7,1.3.85,1.4,1.12,13.39,33,35.59,60.83,53.76,91A67.56,67.56,0,0,0,285.62,2496c14.12,8.15,27.73,17.25,42.08,25,6.24,3.35,13.74,4.49,20.77,6.24,8.32,2.07,15.34,5.64,19.17,14.1,4.5,1,7.55-9.72,13.59-1.35l-6.66,5c7.45,8.12,14.47,10.46,21.75,7.07l-5.52-7.47,9-7.46-.25.26c1.89,1,4.77,1.45,5.51,3,3.34,6.91,3.12,7,10.75,5L408,2553c12.7,10.66,25.88,16.46,41.65,13.93,3-.48,6.71-3.65,7.8-6.47.71-1.84-2-6.34-4.38-7.8-5.88-3.67-12.68-5.83-18.6-9.44-7.49-4.56-13.74-3.88-19.59,2.43,2.37-4.41,1-7.8-2-11.63-3.58-4.53-6.09-9.9-9.07-14.9l-.25.24c6.34,3.61,12.63,7.3,19,10.81,3.14,1.73,6.46,3.13,9.7,4.68.4-3.81-.41-8.19,1.31-9.71,2.53-2.24,6.87-2.45,10.9-3.66l.47,6.75c3.64.23,6.94.17,10.14.71,6.72,1.14,8.48,4,6.82,10.33-2,7.65-1.84,7.34,5.07,11,12.76,6.78,24.44,4.31,35.7-3.33,4.4-3,4.77-6,1.2-9.88a21.71,21.71,0,0,0-5.45-4.32c-9-5-18.23-9.64-27.2-14.72-3.16-1.79-5.24-1-8.13.67-3.69,2.18-6.6.43-5.43-3.23,1.94-6-1.62-8.83-5.2-11.65q-9.39-7.41-19.3-14.16c-12.36-8.42-24.93-16.53-37.27-25-2.28-1.56-3.88-4.1-5.91-6.31,7.35-4.87,11.83-4.66,17.31-.1q24.61,20.41,49.31,40.71c2,1.64,4.32,2.87,7.24,4.78,1.58-5.33.25-9.73-.33-14.11-1-7.41,2.34-11.24,9.7-11.2,2.62,0,5.47.38,7.78-.52,1.85-.72,4-3,4.26-4.82s-1.39-5.08-2.9-5.58c-6.31-2.1-9.41-6.47-11.93-12.32s-7.47-1.35-12.53-1c-5-9.16-10.1-18.71-15.38-28.16-3.39-6.05-6.26-12.62-14.67-13.62-1.4-.17-3.53-3.43-3.45-5.17.29-6.55-3.13-11.49-6.34-16.46-5.41-8.37-11.31-16.43-16.73-24.79a27.49,27.49,0,0,1-3.21-8.2c-2.57-10.22-5.12-20.46-7.24-30.78a15.56,15.56,0,0,1,.88-8.47c4.6-11.4,3.31-16.29-7.71-21.69-11.83-5.8-23.63-11.77-36.74-14.6-4.72-1-9.06-3.74-13.69-5.36-2-.71-4.55-1.32-6.46-.72-4.59,1.45-7.84,0-10.53-3.47-6.5-8.37-12.78-16.9-19.39-25.18-10.58-13.24-16-28.85-21.61-44.51-3.34-9.29-8.12-18.12-12.82-26.85-2-3.73-3.43-7.09-2.34-11.29,1.46-5.59-.44-10.45-3.31-15.16-1.54-2.53-3.5-5.2-3.85-8-1.43-11.53-7.32-21.33-11.69-31.7a54.66,54.66,0,0,1-4-17.26,81.51,81.51,0,0,0-6.09-25.83c-4.41-10.25-6.77-21.4-9.87-32.2-1.45-5.06-2.53-10.22-3.81-15.32a23.76,23.76,0,0,1-1-2.82c-1.52-13.35-7.14-25.43-11.62-37.87-.45-1.24-1.28-2.92-.81-3.81,4-7.69-.87-12.39-5.32-17.43a9.1,9.1,0,0,1-1.7-4.47c-2.25-14.36-4.21-28.77-6.67-43.09-.84-4.86-3-9.48-4.35-14.25-.81-2.81-1.24-5.73-1.91-8.59q-1.24-5.25-2.62-10.46c-.25-.95-1.34-2.16-1-2.7,4-7.23-2.61-14-.72-21.33.65-2.49-.63-6.07-2.15-8.43-5.08-7.86-7.46-16.05-5.38-25.37a7.45,7.45,0,0,0-.45-3.92c-3.49-9.64-7-19.29-10.67-28.86-2.73-7.1-6.82-13.76-4.95-22,.46-2-.61-4.5-1.2-6.71-1.21-4.48-2.47-9-3.91-13.38-1-3.11-2.39-6.09-3.54-9.15-2-5.2-3.92-10.4-5.8-15.62-.33-.92,0-2.2-.54-2.92-6-8.15-4.1-18.48-7.65-27.41-2-5-1.4-11.1-1.7-16.71-.23-4.22,0-8.46,0-14.16a106.65,106.65,0,0,0,21.51-34.36c3.1-8,9.66-14.89,15.26-21.79s11.62-12.84,13.84-22.45c2.28-9.82,8.82-18.57,12.24-28.23,5.38-15.2,9.76-30.76,14.45-46.19,3.65-12,7.14-24.06,10.67-36.1.56-1.91.89-3.88,1.37-5.81,2-8.36,4-16.72,6.14-25.06.48-1.93,1.35-3.77,1.86-5.7,3.31-12.47,6.29-25,10-37.39,2-6.61,5.25-12.82,7.56-19.34,2.08-5.87,3.89-11.87,5.4-17.92,2.14-8.59,7.91-15,12.68-22,3.68-5.42,7.64-10.73,10.65-16.52,3.82-7.35,6.55-15.27,10.22-22.71,3.51-7.11,2.74-11.41-4.29-14.39-28.39-12-53.21-30.16-79.42-45.94-37.93-22.85-76.22-45.1-114.5-67.36-4.37-2.54-9.65-3.52-16.33-5.86l-3.29-6.71c11.2-16.83,16.52-35.54,22.52-54,3.24-10,6.77-19.85,10.23-29.74,1.42-4,4.08-8,4.32-12,.69-11.81,7.48-20.69,13-30.29,3.1-5.44,6.47-10.82,8.79-16.6a96.54,96.54,0,0,1,12.61-22c5.88-7.86,10.83-16.4,16.21-24.63,9.37-14.34,18.67-28.71,28.15-43,4.55-6.84,9.86-13.21,14-20.26,2.81-4.73,4-10.39,6.34-15.44,4.31-9.29,8.44-18.81,17.37-24.85a10,10,0,0,1,5.52-1.89c15.27.65,27.07-7.54,39.06-14.36.24-1.32.67-2.13.42-2.58-5.25-9.5-5.11-18.53.09-28.39,6.67-12.64,11.92-26,18-39,3-6.4,7.06-11.61,13.71-15.2,10.54-5.7,17.63-15.23,23.23-25.55,1.73-3.18,1.37-7.72,1.24-11.61-.14-4.3-1.08-8.58-1.73-12.86-1-6.86,1.06-12.81,3.88-19.11,3.9-8.7,9.36-16.87,9.17-27.37-.08-4.79,4-9.55,5.8-14.49,3.44-9.69,6.09-19.69,10-29.19,3-7.39,7.45-14.18,11-21.34a17,17,0,0,0,1.89-6.68c.33-8,4.49-14.41,8.19-21.15,7-12.79,13.47-25.89,20.21-38.83,1-1.93,2.46-3.63,3.51-5.54,1.24-2.29,3.65-5,3.15-7-2.22-8.71,3-15.5,5.57-22.72,3.31-9.4,2.56-18.87,3.18-28.34.22-3.3-.61-6.76,0-9.94,2.57-12.51.27-24.39-3.7-36.19-4.46-13.26-2-26.54,1.21-39.43a489.38,489.38,0,0,1,14.12-47.88c4.79-13.42,11-26.4,17.38-39.15,2.78-5.52,7.61-10,11.65-14.89,14.43-17.39,29-34.57,46.47-49.19,18.33-15.38,39.23-26.07,61.27-34.6,12.66-4.9,25.9-8.32,38.9-12.32,14.37-4.43,29-4,43.53-1.43a101.72,101.72,0,0,0,23.72,1.3,105.47,105.47,0,0,1,41.33,5.36c15,5.24,30.21,9.09,44,18a166.62,166.62,0,0,1,34.6,29.85c14.51,16.43,28.68,33.19,42.27,50.38,6.48,8.2,12.82,16.51,16.82,26.74s10.5,19.74,17,28.8c12.51,17.51,18.68,37.13,21.39,58.1,1.15,8.92,6.34,15.93,10.2,23.63,2.94,5.87,5,12.2,7.4,18.33,2.15,5.49,4.17,11,6.38,16.49,3.25,8,6.74,15.93,9.93,24,4.77,12,11.72,23.11,13.87,36.26.69,4.22,4.12,8.25,7,11.8,5.56,6.85,9.72,14.19,11.6,22.91a129.35,129.35,0,0,0,5,17.21c3.42,9.35,7.33,18.49,8.13,28.6.88,11.24,6.89,19.6,14.73,27.37,12.3,12.2,23.2,25.64,31.51,41,8,14.76,7.38,30.09-1.38,43.65-6.66,10.3-1.19,15.94,7,19,2.16.81,4.54,1,6.72,1.81a9,9,0,0,1,3.28,2.15c.55.56.57,1.64,1.27,3.95l-24.95-8.4c.21,1.93,0,3.56.58,4.78a74.57,74.57,0,0,0,25,29.17c7.09,4.84,13.92,4.5,19.12.34,5.22,0,9.81.65,14.16-.13,11.52-2,20.18,1.75,26.7,11.27q7.34,10.7,15.05,21.14c4.09,5.55,4.36,11.37,3,18-2.15,10.63-1.85,21.25,3.89,31,1.49,2.53,3.11,5.25,5.35,7,6.44,5.12,8,11,4.42,18.45-.7,1.44-.75,3.19-1.25,5.5L1124,888.7c-.58,6.58-.34,13.94-6.79,19.85,1,2.52,1.34,6,3.26,7.81,5.91,5.62,5.23,13.47,7.65,20.21.53,1.48-.16,4.36-1.32,5.24s-3.87.73-5.52.08c-3.05-1.2-5.68-3.58-8.77-4.55-2.43-.76-5.3-.15-8.5-.15-.59-6.62-4.32-11.49-11.39-13.7-6.25,3.51-3.49,10.25-5,15.76,1.88,1.77,3.89,3.43,5.62,5.34,2.81,3.1,6.89,4.45,9.9,2.53,7.53-4.8,11.76,1.78,16.91,4.23s4,8,3.37,12.55c-1.57,10.74-5,21.44-4.88,32.11.14,9.28-3.13,16.53-7.05,24-4.54,8.68-9.82,9-15.34,1a48.26,48.26,0,0,0-3.69-4.65,32.23,32.23,0,0,0-3-2.65c-1.07.4-2.29.48-2.8,1.11-6.72,8.46-15.42,12.82-26,15.22-11.09,2.52-18.27,11.72-26.08,19.31-3.26,3.17-1.42,6,6.2,10.15l4.57-6.24,2.58,8.9,5.4-4.21,4.78,6.36c-1.74,2.59-3.25,5.18-5.09,7.52-4.4,5.59-7.21,11.2-6.35,19,.55,5-1.45,10.57-3.53,15.36-5.36,12.38-13.18,16.38-27.22,14.81-3.72,3.81-1.46,8.07-.53,12.08,3,12.93,5.55,26,4.76,39.26-.47,7.87-1.29,16-3.64,23.43-2.61,8.31-.17,15.78,1.46,23.39,4.45,20.88,11.06,41.46,13.7,62.54a280.94,280.94,0,0,1-1.61,83.95c-2.25,12.77-4.69,25.52-6.48,38.35-2.35,16.85-10.18,31.45-18.2,46s-17.53,28-24.41,42.84-11.66,30.92-16.77,46.64c-1.72,5.28-2,11.11,1.66,16.33a18.23,18.23,0,0,1,2.95,14.29c-1.06,5.72.82,10.25,5.44,14.06,8.42,6.93,11.9,16.54,13.77,27a84.37,84.37,0,0,0,3.11,11.35c2.58,7.83,6.88,15.45,7.69,23.44,1.81,17.67,6.87,34.53,10.35,51.77,3.54,17.55,5.61,35.39,8.29,53.11.35,2.3,0,4.86.91,6.89,7.91,17.82,8.34,36.78,9.17,55.76.18,4.09,1.91,8.2,3.41,12.12,2.71,7.07,6.83,13.73,4.72,21.88a10.88,10.88,0,0,0,.07,5.94c6.1,17.67,6.25,36.84,13.87,54.13,1.73,3.92,2.56,8.24,3.67,12.42.33,1.24.83,3.16.22,3.82-5.91,6.39-1.91,12,.5,18.27s2.65,13.7,4.77,20.3c3,9.47,7,18.66,10.44,28,.69,1.85,2,4,1.57,5.67-1.89,7.95,2.68,15,2.84,22.36.27,12.23,4.58,23.15,7.89,34.5,1.28,4.39,1,9.23,1.43,13.86.11,1.3-.37,3.59.11,3.79,7.92,3.38,3.69,10.22,4.7,15.55a71.71,71.71,0,0,0,3.23,12.53c5.58,14.44,11.41,28.78,17.22,43.14,4.81,11.87,9.58,23.76,14.63,35.53,2.47,5.77,1.66,10.05-3.71,13.7-6.31,4.29-12.2,9.2-18.52,13.47-7.52,5.08-8,6-4.56,14.67,1.1,2.79,2.34,5.52,3.44,8.31a43.46,43.46,0,0,1,2.06,24.4c-1.31,6.89.91,12.19,4.77,17.63,3.42,4.83,6,10.28,8.75,15.56,3.49,6.67,1.11,12.18-3.68,17.16-4.6,4.78-8.76,10.06-13.79,14.32-4.23,3.58-9.52,5.89-14.19,9-4.36,2.89-8.59,6-12.74,9.16-5.5,4.21-10.87,8.59-16.29,12.89-1.8,1.43-4.69,2.53-5.21,4.32-2,6.78-7.37,9.58-12.51,13.37s-8.81,9.39-13.12,14.2l1.43,2.14c3.65-1.11,7.43-1.89,10.91-3.39,16.2-7,28.68-19.2,42.12-30.11,6.71-5.45,13.59-10.73,20.78-15.5,3.37-2.24,7.64-3.11,11.95-3.76-3.86,7-8.43,13-15.33,16.46-15.33,7.57-28,18.87-41.7,28.78-6.68,4.85-13,10.25-19.53,15.48l5.22,14,13.48-2.41-9.42,10.63c-10-4.1-15.28-14.71-23.16-22.21-8-7.65-14.58-16.89-21.92-25.61-1.55,11.48-3.18,22.82-4.59,34.19a41.26,41.26,0,0,1-6.79,18.54,26.78,26.78,0,0,0-4,11c-3.67,26.71-6.73,53.5-10.57,80.19-5.65,39.22-10.42,78.59-19.28,117.29-16,69.86-36.31,138.52-57.85,206.82-5.91,18.73-13.16,37-19.8,55.52ZM761.41,1231.7l-4-5.94-1.53,4.78,5.77.9-2.8,5.45,6.89.43-3.11,5.86,8.58-1.17-5.32,6c2.19.69,4.37.51,4.86-.49.75-1.56.35-3.68.43-5.56l-5.7-4.42Zm100.28-94.6c-.33,3.55-.77,7.1-.86,10.65,0,.44,1.83.92,2.81,1.38-3.1,7.18-.65,13.56,1.69,20l2.39-.4q-2.17-9.65-4.35-19.3l-1.87-12.15-1.36-9.21C859.15,1134.67,859.23,1135,861.69,1137.11ZM592.58,1003.8c-.11,2.47-3.87,5.21,1,8.15l-1-8.13L583,997.21l-.86.78,6.57,7.49Zm275.7,204.54c3.09-4.32,1.52-8.45-1.1-12.51l1.21,12.42c-.06,2.55-1.16,5.79,0,7.54,5,7.63,1.45,16.09,3.06,24a33.55,33.55,0,0,1,.31,4.69l2.13-.22C873.9,1232.05,874.59,1219.78,868.28,1208.34Zm11.18,79.42c-5-4.86-4.78-11.21-4.83-17.42s.27-12.56.06-18.84c0-1.32-1.67-2.58-3.13-4.67,0,6.63.27,11.85-.06,17-.53,8.16,3.7,17-3.61,24.33-.86.86-.14,3.22-.31,4.86s-.06,3.53-.93,4.67c-6.83,8.9-14,17.48-22,26l-49.26-32.25v21.22c5,4.48,8.23,9.62,12.28,10.41,5.72,1.11,9.27,4.77,13.74,7.28,4.92,2.77,9.5,6.15,14.26,9.21,4.43,2.85,8.91,5.63,13.58,8.58,11.83-11.73,20.37-25.57,33.77-37.46l-.49,9.89c4.2-4,5-7.44.65-11.7s-6.47-10-3.53-16.31ZM579.52,995.35c4.55-3.39,8.48-.59,12.68,1.41,30.79,14.65,63.13,20.17,97.13,17a474.37,474.37,0,0,0,69.62-11.54c9.69-2.4,19.15-6.22,21.08-17.28,1.66-9.48,1.16-19.19-5.47-27.53-3.92-4.93-7.78-8-14.84-8-4.6,0-8.3,1.24-12.33,2.59-7.93,2.65-12,.45-14.16-7.34-.72-2.55-1.52-5.09-2.48-7.56-5.31-13.76-7.33-28.3-8.47-42.74-.85-10.69,1.28-21.6,2-32.43.53-8.59-.27-17.45,1.53-25.75,3.33-15.37,1-30.91,2.77-46.28.28-2.38-2.24-5.3-3.92-7.64-3.28-4.56-4.21-9.36-.78-13.87,4.36-5.71,3.92-12.48,5.48-18.85,2.14-8.77-1.68-14.12-8.91-17.68a30.93,30.93,0,0,0-9.47-2.36,68.23,68.23,0,0,0-8.86-.08c-2.12-5.36-1.08-9.7,3.13-12.73,6.69-4.81,12.62-11,21.42-12.29,1.85-.27,3.65-1.51,5.27-2.59,6.62-4.43,13.07-9.1,19.74-13.45,18-11.73,33.1-26.15,40.7-46.6a322.16,322.16,0,0,0,12.33-42c3.32-14.91,3.82-30.51,7.73-45.22,4.83-18.17,4.79-36.21,2.26-54.34-4.28-30.61-7.92-61.28-18.31-90.84-4-11.29-8.62-21.41-16.15-30.4-10.42-12.45-20.45-25.27-31.58-37.05-6.53-6.92-13.71-13.07-19.06-21.16-2.45-3.72-7.5-5.62-10.44-9.13-16.73-19.93-39.6-29.32-63.19-37.68-4.52-1.6-10-3-12.75-6.35s-5.05-3.88-7.17-2.14c-4.53,3.72-9.34,2.64-14.26,2.47-9.3-.33-18.52-1-25.93,6.86-2.26,2.42-6.47,3.22-9.94,4.27-12,3.61-24.1,6.95-36.12,10.51-9.51,2.81-18.32,7.33-28.28,9.34-14.79,3-26.75,10.93-34.33,25a242.06,242.06,0,0,1-20.2,32,88.65,88.65,0,0,0-17.45,41.53c-3.61,23.2-11.86,45.75-8.13,69.82.61,3.92.42,8,.57,12,.78,20.66,2.07,41.1,9.41,60.9,9.48,25.55,17.37,51.69,26.71,77.3,11.41,31.29,26.37,60.53,53.09,82,5.43,4.36,7.69,9.83,7.89,16.47.57,19,1.66,37.95,1.53,56.92-.1,13.61-1.91,23.15-22.12,16.55-3.57-1.16-6.41-1.2-9.24,1.24-5,4.34-11,7.66-16.41,11.18-5.7,3.72-11.35,10.8-20.09,8.76-.45-.1-1.32.53-1.62,1-2.94,4.91-7.73,4.26-12.05,3.81-6.2,9.07-6.39,13.57-1.37,23.25,8.39,16.2,16.52,32.53,25.19,48.57a138.63,138.63,0,0,0,13.86,21.47c6.83,8.42,14.63,16.06,22.18,23.87,11.85,12.26,23.9,24.32,35.75,36.57C562.69,977.35,570.57,985.87,579.52,995.35ZM218.36,1858.08l2.51.7c2.88-6.1,5.7-12.23,8.65-18.3q6.91-14.24,14-28.4c6.73-13.44,13.78-26.73,20.27-40.28,4.55-9.49,8.32-19.35,12.56-29,6.06-13.79,12.92-27.27,18.18-41.35,6.72-18,13.71-35.72,24.12-52,3.14-4.89,6.78-10.12,7.71-15.62,1.56-9.18,2.54-19.06-7.16-25.56-1.6-1.07-2.7-2.9-4-4.41-6.38-7.42-6.91-12.72-1.43-20.57,2-2.9,4.9-5.23,7.49-7.71s5.19-4.69,7.64-6.89c-.94-1.89-1.22-2.91-1.85-3.62a20.12,20.12,0,0,0-4.29-4.15c-13.65-8.16-17.65-22.51-22.64-36-1.17-3.16.33-7.86,1.86-11.3s4.79-6.26,7-9.53c1.21-1.79,3-4.37,2.47-5.95a148.63,148.63,0,0,0-8.43-21.93c-4.5-8.9-8.9-17.6-9.25-27.88a39.78,39.78,0,0,0-2.38-11.63c-.95-2.7-2.94-5.09-4.74-7.4-2-2.54-4.42-4.72-6.45-7.23-3.54-4.37-6.91-8.88-11.44-14.73-2.13,6.7-3.73,11.33-5.07,16-7.19,25.29-14.41,50.57-21.43,75.91-13.5,48.73-28.79,97-36.1,147.29-7.81,53.76-9.83,107.4,1.27,161C210.89,1824.45,214.7,1841.25,218.36,1858.08Zm622.82-420.26c15.73-14.23,30-28.24,45.54-40.81,10.9-8.85,9.63-20.36,7.33-30.59-1.86-8.3-3.87-15.81-.64-24.8-1.68.63-2.67.72-3.23,1.26-13.89,13.21-27.73,26.47-41.78,39.91a15.73,15.73,0,0,1-3.54-1.6c-11.73-9.33-23.54-18.57-35-28.26-2-1.7-2.34-5.38-3.13-7.34l-9.11,1.42c.23,8.27-6.71,17.24,4.83,25.32h-8l-4.46,20.4ZM437.69,2335.65c5.09,1.85,7.35-1.55,9.51-5.07,2.39-3.9.24-6.81-2-9.88-2.87-3.92-5.1-8.35-8.28-12a24.31,24.31,0,0,0-9.08-6.82c-3.88-1.46-8.37-1.45-12.62-1.77-5.16-.4-8.61,3.12-6.88,8.08s4.7,9.33,7.82,13.44c2.36,3.1,6.27,5,8.7,8.08A14.48,14.48,0,0,0,437.69,2335.65Zm562.42-49.33c.87.12,1.39.3,1.45.19,1.5-2.51,3.3-4.91,4.34-7.61,4.09-10.65,13.72-8.36,18-.8,1.75,3.07,2.3,6.82,3.39,10.27.65,2.06,1.29,4.13,2.13,6.84,4.36-3.43,7.62-7.14,11.72-8.91s8.79-1.41,13.23-2l.45-2.46c-8-4.85-15.11-11.1-25-12.83-7.76-1.35-15.79-1.82-22.52-7.1-3.41-2.67-6.82-.56-9.39,2Zm50.21-1504.94c0,3-.85,5.79.14,7.63,6.5,12.05,13.4,23.9,20.31,36.06,4.93-3.79,7.22-8.12,6.61-13.93s-15.65-26.6-21.07-28.77C1054.85,781.79,1053.14,781.83,1050.32,781.38ZM542.23,2583c7.3.34,12-4.31,12.27-10,.28-5.1-2.72-8.64-8.29-9.12-6-.52-10.84,2.52-14.82,6.51-1,1-1,5.12.06,5.92C535.26,2579.26,539.68,2581.45,542.23,2583Zm-57.63-1.53c1.8,6.1,6.8,7,10.73,9,10.55,5.34,15.82,1.5,15-10.8C501.71,2575.82,493.18,2573.55,484.59,2581.42Zm9.77-69.68c8.1,8,14.27,9.65,19.68,5.35,1.78-1.42,3.95-4.87,3.34-6.24-1.34-3-4-6.75-6.75-7.4-3-.7-6.89,1.43-10.05,3C498.24,2507.64,496.45,2509.91,494.36,2511.75Zm50.57,27c5.19,4.57,10.92,7.41,17.06,4.41,4.51-2.2,3.56-7.1,1.8-11.52C556,2530.09,549.4,2530.73,544.93,2538.76ZM480.4,647.25c-8.06,5.63-2.27,12.91-6.49,19.82,4.65.1,8.26,1.26,10.4,0,3.52-2.11,2.91-6.37,1.44-9.83C484.34,654,482.39,650.93,480.4,647.25Zm589.16,305.5L1053.74,930c-2.3,20.24-2.87,17.9,15.21,23C1069.16,953.16,1069.51,952.78,1069.56,952.75ZM480.74,2513.54l3.59-14.94c-5,0-8.4-5.27-14.21-1.71l8.43,7.53-7.55,3-.29,2Zm601.52-1535.2,13.61,2.77c.49-10.71-2-13.15-11.77-12.38ZM453.41,2577.91c-6.75-7.17-13.49-9.06-20.52-6.2C438.67,2576.47,444.19,2580.57,453.41,2577.91Zm67.34-16c5.3-1.09,8-3.12,8-7.27,0-1.42-1.75-3.26-3.18-4-.65-.35-3.22,1.18-3.58,2.29C521.2,2555.48,521.2,2558.31,520.75,2561.93Zm582.37-1544c3.69-7.23,3.71-10-.18-11.17-1.75-.52-4.83.24-6,1.57C1094.73,1010.94,1097.15,1014.62,1103.12,1017.89ZM955.77,693l-1.83,1.38,11.48,17.69C966.86,702.33,962.19,697.17,955.77,693Zm118.3,250.78-5.63-14.06C1066.15,936.16,1068.16,940.79,1074.07,943.77ZM834.55,611.37l-3.32-10.29-1.07.26-.93,11.07ZM963.7,638.63c6.09-5.71,6.09-5.71-1.05-10.81ZM949,596.42l2.87-1-3.65-10-2.74,1Zm-82.36,590.87,2.56-.76-2.1-12.46-2.87.59Zm169.85-356.88c1.79,2.85,3.22,5,7.17,3.33C1042.59,829.44,1040.35,828.92,1036.47,830.41ZM699.05,1145.08c.93,6.64.93,6.64,6.42,9.32Zm-217-511.22-.27-3c-1.19-.52-2.42-1.5-3.56-1.41-.88.07-2.46,1.72-2.31,2.25a5.27,5.27,0,0,0,2.52,3.22C479.39,635.33,480.86,634.29,482.09,633.86Zm229.3,528.76-1.86,1.6,5.48,5.7,1.22-1.21Zm76.41,120.52.34,1.86c1.39-.27,2.79-.49,4.15-.89.14,0,0-1.13-.06-1.73ZM492.27,2502.86c-1.24-1-2-2-2.53-1.89a2.66,2.66,0,0,0-1.73,1.77c-.12.64.66,1.46,1.05,2.2Zm601.1-1509.62,1.37-2.24-5-2.51-.89,1.51ZM447,2538.55a10.86,10.86,0,0,0-2.37-1.67c-.3-.1-1.31.73-1.25,1a8.69,8.69,0,0,0,1.07,2.12ZM1102.91,975l-2-.16-.52,5.9,2.12.19Zm-493.72,58.61,1.86-1.35-2.79-3.73-1.52,1.05ZM832.82,560.31,830.77,559c-.34.53-1.07,1.32-.93,1.54a9.79,9.79,0,0,0,1.9,1.76ZM666.91,1107.8c.83-1.2,1.72-1.92,1.67-2.57s-1-1.26-1.6-1.88c-.52.72-1.31,1.38-1.47,2.17C665.4,1106,666.21,1106.73,666.91,1107.8Zm188.7-5.09,1.49.36-.51-6.85-1,.07Z"/><path class="cls-3" d="M579.52,995.35c-8.95-9.49-16.82-18-24.89-26.34-11.85-12.25-23.9-24.31-35.75-36.57-7.55-7.81-15.35-15.45-22.18-23.87a138.63,138.63,0,0,1-13.86-21.47c-8.67-16-16.81-32.37-25.19-48.57-5-9.68-4.83-14.18,1.37-23.25,4.33.46,9.11,1.1,12.05-3.81.31-.51,1.18-1.15,1.62-1,8.74,2,14.39-5,20.09-8.76,5.39-3.52,11.38-6.84,16.41-11.18,2.83-2.44,5.67-2.41,9.24-1.24,20.21,6.6,22-2.93,22.12-16.55.14-19-1-37.94-1.53-56.92-.2-6.65-2.46-12.11-7.89-16.47-26.71-21.43-41.68-50.68-53.09-82-9.34-25.61-17.23-51.75-26.71-77.3-7.34-19.8-8.63-40.24-9.41-60.9-.15-4,0-8-.57-12-3.73-24.07,4.52-46.62,8.13-69.82a88.65,88.65,0,0,1,17.45-41.53,242.06,242.06,0,0,0,20.2-32c7.58-14.07,19.53-22,34.33-25,10-2,18.77-6.52,28.28-9.34,12-3.56,24.12-6.89,36.12-10.51,3.47-1,7.68-1.85,9.94-4.27,7.41-7.91,16.63-7.19,25.93-6.86,4.92.18,9.73,1.26,14.26-2.47,2.12-1.74,4.56-1.09,7.17,2.14s8.23,4.75,12.75,6.35c23.59,8.35,46.45,17.74,63.19,37.68,2.94,3.51,8,5.41,10.44,9.13,5.34,8.1,12.52,14.24,19.06,21.16,11.13,11.78,21.16,24.6,31.58,37.05,7.52,9,12.18,19.12,16.15,30.4,10.39,29.56,14,60.23,18.31,90.84,2.54,18.13,2.58,36.17-2.26,54.34-3.91,14.72-4.41,30.31-7.73,45.22a322.16,322.16,0,0,1-12.33,42c-7.6,20.46-22.74,34.87-40.7,46.6-6.66,4.35-13.12,9-19.74,13.45-1.62,1.09-3.42,2.32-5.27,2.59-8.8,1.3-14.73,7.48-21.42,12.29-4.21,3-5.25,7.37-3.13,12.73a68.23,68.23,0,0,1,8.86.08,30.93,30.93,0,0,1,9.47,2.36c7.23,3.56,11,8.91,8.91,17.68-1.56,6.37-1.12,13.14-5.48,18.85-3.43,4.5-2.5,9.31.78,13.87,1.68,2.34,4.2,5.26,3.92,7.64-1.79,15.37.57,30.91-2.77,46.28-1.8,8.3-1,17.16-1.53,25.75-.67,10.82-2.8,21.74-2,32.43,1.14,14.44,3.16,29,8.47,42.74,1,2.47,1.76,5,2.48,7.56,2.19,7.78,6.22,10,14.16,7.34,4-1.35,7.74-2.54,12.33-2.59,7.06-.07,10.92,3,14.84,8,6.63,8.34,7.13,18,5.47,27.53-1.94,11.06-11.4,14.88-21.08,17.28a474.37,474.37,0,0,1-69.62,11.54c-34,3.2-66.34-2.32-97.13-17C588,994.76,584.06,992,579.52,995.35ZM652,470.23c8.32-.69,15.6-1.91,22.86-1.74,7.84.18,15.63,1.8,23.46,2.51,7.57.68,15.39,2.36,22.72,1.18,11.67-1.88,23-5.78,34.5-8.83a9.5,9.5,0,0,0,1.89-.62c4.94-2.52,5.94-6.21,2.12-10.26-4.34-4.59-7-11.87-15.51-10.65-.69.1-1.68-1-2.32-1.66-11.87-12.87-27-17.09-43.58-14.29-15.19,2.57-31.05,4.63-42.18,17.56A7.24,7.24,0,0,1,648,446c-8.43-2-14.26.73-17.41,8.42a48.9,48.9,0,0,0-2.46,30,8.14,8.14,0,0,0,4,4.8c2.55,1.23,5.51.63,6.59-2.51,1.63-4.72,5.21-5.41,9.48-5.57,2.77-.1,5.51-.85,9.76-1.56Zm-1,173.1c18.75.6,46.65-18.37,60.16-41-3.18-1-6-2.43-8.92-2.79-6.59-.83-13.31-.72-19.86-1.74-16.75-2.62-32.21,2.68-47.79,7.26a11.11,11.11,0,0,0-5.28,4.21c-2.74,3.85-6.95,5.38-10.5,3.8-7.16-3.19-13.52-.48-20.24.69-6.18,1.08-12.55,1.29-18.63,2.72-7.54,1.77-14.88,4.41-24,7.21,9.76,5.48,17.39,10.1,25.34,14.06,3,1.49,5.63,2.53,7.62,5.65,2.24,3.5,5.91,5.77,11.4,4L594,638c16.37-5.73,32.69.47,48.06-3.86,2.09-.59,4.55.13,6.84.3.25,0,.48.43,1.18,1.09ZM480.53,497.72c20.63,1,40.82-1.94,60.7,2.48a10.93,10.93,0,0,0,4.94-.52c8-2.17,16.14-4.18,24-6.86,2.88-1,5.18-3.65,8.3-6L573.39,482c4-6.42,1.46-11.63-3.12-16.86-6-6.87-13.34-10.4-22.27-12.06-11.53-2.15-22.54-.1-33.6,2.31-9.26,2-18.57,5-23.64,13.49-4.68,7.84-7.63,16.71-11.2,25.18C479.26,494.8,480,496,480.53,497.72ZM761,420.84c-4.51-15.26-12.49-26.21-27.77-30.65-3.18-.92-6.52-1.87-9.25-3.63-11.84-7.64-24.08-6.4-36.36-1.86a206.34,206.34,0,0,0-20,8.91,114,114,0,0,0-13.76,8c-7.24,5-10.62,12.94-8.78,20,9.47,1.16,17.92-1.16,26.28-6.15a150.51,150.51,0,0,1,26-12.31c12.34-4.44,24.74-3.56,36.27,3.32,8.14,4.85,16.17,9.88,24.29,14.77C758.37,421.53,759.18,421.13,761,420.84ZM557.13,431.21c-2.26-4.81-6-6.79-10.11-8.2a93.39,93.39,0,0,0-41.36-4.68c-7.73.92-16.35,2.56-22.43,6.89C476.51,430,472.13,438.15,467,445c-.8,1.08-.11,3.28-.11,5.58,4.46-3.69,7.72-8.22,12-9.6,14.54-4.7,29.21-8.91,45-5C534.94,438.82,546.19,438.71,557.13,431.21Zm94.65,89.08-.44,2.65c1.89,1.26,3.7,2.65,5.68,3.76,14.54,8.12,17.13,18,8.18,31.63-1.58,2.41-3.72,4.61-1.56,7.78,3.63-3.4,7.15-6.34,10.25-9.67,7.78-8.34,8.3-14,1.11-22.66a60,60,0,0,0-13.42-11.59C659,520.49,655.09,520.85,651.78,520.29ZM638,565.76c6-3.17,13.85-.46,19.42-6C647.51,555.11,643.66,556.26,638,565.76ZM535.14,624.26l6.2-16.6C536.87,611.67,533.46,616,535.14,624.26ZM728,966.24l-1.76-2-3.65,3.9,1.15,1.29Z"/><path class="cls-4" d="M1050.32,781.38c2.82.44,4.53.41,6,1,5.42,2.17,20.46,23,21.07,28.77s-1.68,10.14-6.61,13.93c-6.91-12.17-13.81-24-20.31-36.06C1049.47,787.18,1050.32,784.35,1050.32,781.38Z"/><path class="cls-5" d="M480.4,647.25c2,3.67,3.95,6.71,5.34,10,1.48,3.46,2.08,7.71-1.44,9.83-2.14,1.28-5.75.12-10.4,0C478.12,660.16,472.33,652.89,480.4,647.25Z"/><path class="cls-6" d="M1069.56,952.75s-.39.4-.61.34c-18.08-5.15-17.51-2.81-15.21-23Z"/><path class="cls-7" d="M1082.26,978.34l1.85-9.61c9.75-.77,12.26,1.67,11.77,12.38Z"/><path class="cls-8" d="M1103.12,1017.89c-6-3.26-8.39-6.95-6.14-9.6,1.13-1.33,4.22-2.09,6-1.57C1106.83,1007.87,1106.81,1010.65,1103.12,1017.89Z"/><path class="cls-9" d="M955.77,693c6.42,4.18,11.09,9.34,9.65,19.07l-11.48-17.69Z"/><path class="cls-3" d="M863.36,1149.39l4.35,19.31-2.39.4c-2.34-6.4-4.78-12.78-1.69-20Z"/><path class="cls-10" d="M1074.07,943.77c-5.9-3-7.91-7.61-5.63-14.06Z"/><path class="cls-11" d="M834.55,611.37l-5.32,1,.93-11.07,1.07-.26Z"/><path class="cls-12" d="M963.7,638.63l-1.05-10.81C969.79,632.92,969.79,632.92,963.7,638.63Z"/><path class="cls-13" d="M949,596.42l-3.51-10,2.74-1,3.65,10Z"/><path class="cls-3" d="M592.58,1003.79l-3.85,1.7L582.15,998l.86-.78,9.58,6.61Z"/><path class="cls-3" d="M861.7,1137.09c-2.47-2.14-2.55-2.42-1.57-9.05q.68,4.6,1.35,9.21Z"/><path class="cls-14" d="M1036.47,830.41c3.88-1.49,6.12-1,7.17,3.33C1039.69,835.45,1038.26,833.26,1036.47,830.41Z"/><path class="cls-3" d="M699.05,1145.08l6.42,9.32C700,1151.72,700,1151.72,699.05,1145.08Z"/><path class="cls-3" d="M863.63,1149.14c-1-.46-2.82-.95-2.81-1.38.09-3.56.53-7.1.87-10.66l-.21.15q.95,6.06,1.88,12.14Z"/><path class="cls-3" d="M482.09,633.86c-1.22.42-2.7,1.47-3.61,1.11a5.27,5.27,0,0,1-2.52-3.22c-.16-.53,1.43-2.18,2.31-2.25,1.14-.09,2.37.89,3.56,1.41Z"/><path class="cls-15" d="M1093.37,993.24l-4.52-3.23.89-1.51,5,2.51Z"/><path class="cls-16" d="M1102.91,975l-.36,5.92-2.12-.19.52-5.9Z"/><path class="cls-3" d="M609.19,1033.64l-2.46-4,1.52-1.05,2.79,3.73Z"/><path class="cls-3" d="M592.59,1003.82l1,8.13c-4.91-2.94-1.15-5.68-1-8.16Z"/><path class="cls-17" d="M832.82,560.31l-1.09,2a9.79,9.79,0,0,1-1.9-1.76c-.14-.22.6-1,.93-1.54Z"/><path class="cls-3" d="M666.91,1107.8c-.7-1.07-1.51-1.77-1.4-2.28.16-.79.95-1.45,1.47-2.17.57.62,1.55,1.21,1.6,1.88S667.73,1106.6,666.91,1107.8Z"/><path class="cls-3" d="M855.6,1102.7v-6.42l1-.07.51,6.85Z"/><path class="cls-2" d="M652,470.23l6,9.35c-4.26.71-7,1.45-9.76,1.56-4.27.16-7.85.85-9.48,5.57-1.09,3.14-4,3.73-6.59,2.51a8.14,8.14,0,0,1-4-4.8,48.9,48.9,0,0,1,2.46-30c3.15-7.69,9-10.47,17.41-8.42a7.24,7.24,0,0,0,7.93-2.59c11.12-12.93,27-15,42.18-17.56,16.59-2.81,31.7,1.42,43.58,14.29.65.7,1.64,1.76,2.32,1.66,8.48-1.21,11.17,6.07,15.51,10.65,3.82,4,2.82,7.73-2.12,10.26a9.5,9.5,0,0,1-1.89.62c-11.48,3-22.83,6.94-34.5,8.83-7.32,1.18-15.14-.49-22.72-1.18-7.84-.71-15.63-2.33-23.46-2.51C667.56,468.33,660.27,469.54,652,470.23Zm32.82-9.31L681.27,447c-5.36,3.75-12.46,5.63-10.6,11.53C672.31,463.74,678.82,461.95,684.78,460.93Zm7.22-9.05c-1.32-.94-2.34-2-2.64-1.81a12.39,12.39,0,0,0-2.43,2.41c.66.62,1.5,1.85,1.94,1.72C689.86,453.9,690.66,452.93,692,451.87Z"/><path class="cls-2" d="M650.91,643.33l-.79-7.82c-.7-.66-.92-1.07-1.18-1.09-2.29-.17-4.75-.89-6.84-.3-15.37,4.34-31.69-1.86-48.06,3.86l6.12,9.41c-5.49,1.79-9.16-.48-11.4-4-2-3.12-4.62-4.15-7.62-5.65-8-4-15.58-8.58-25.34-14.06,9.17-2.8,16.51-5.44,24-7.21,6.09-1.43,12.45-1.64,18.63-2.72,6.72-1.17,13.08-3.89,20.24-.69,3.55,1.58,7.76.05,10.5-3.8a11.11,11.11,0,0,1,5.28-4.21c15.58-4.58,31-9.88,47.79-7.26,6.55,1,13.27.92,19.86,1.74,2.94.37,5.75,1.76,8.92,2.79C697.55,625,669.65,643.93,650.91,643.33Zm-19.22-22.19.44,1.51,4.81-1.38-.45-1.52Z"/><path class="cls-2" d="M480.53,497.72c-.5-1.76-1.27-2.92-1-3.62,3.57-8.48,6.52-17.35,11.2-25.18,5.07-8.5,14.38-11.46,23.64-13.49,11.06-2.42,22.07-4.46,33.6-2.31,8.93,1.66,16.26,5.19,22.27,12.06,4.58,5.23,7.13,10.44,3.12,16.86l5.08,4.82c-3.12,2.31-5.43,5-8.3,6-7.87,2.68-16,4.69-24,6.86a10.93,10.93,0,0,1-4.94.52C521.35,495.78,501.16,498.7,480.53,497.72Zm37.5-8.16-4.6-14.63c-4.65,1.87-8.36,4.09-7.2,8.72C507.43,488.47,512,489.24,518,489.55Z"/><path class="cls-2" d="M761,420.84c-1.83.29-2.64.69-3.05.44-8.12-4.88-16.15-9.92-24.29-14.77-11.53-6.88-23.93-7.76-36.27-3.32a150.51,150.51,0,0,0-26,12.31c-8.35,5-16.81,7.31-26.28,6.15-1.84-7.08,1.54-15.07,8.78-20a114,114,0,0,1,13.76-8,206.34,206.34,0,0,1,20-8.91c12.28-4.53,24.52-5.77,36.36,1.86,2.73,1.76,6.07,2.71,9.25,3.63C748.52,394.63,756.5,405.58,761,420.84Z"/><path class="cls-2" d="M557.13,431.21c-10.95,7.5-22.19,7.61-33.27,4.84-15.78-3.94-30.45.27-45,5-4.28,1.38-7.53,5.91-12,9.6,0-2.3-.69-4.5.11-5.58,5.12-6.89,9.51-15,16.24-19.82,6.08-4.33,14.7-6,22.43-6.89A93.39,93.39,0,0,1,547,423C551.15,424.42,554.88,426.41,557.13,431.21Z"/><path class="cls-2" d="M651.78,520.29c3.31.56,7.22.2,9.8,1.89A60,60,0,0,1,675,533.77c7.19,8.69,6.66,14.32-1.11,22.66-3.1,3.33-6.62,6.27-10.25,9.67-2.16-3.17,0-5.37,1.56-7.78,9-13.67,6.37-23.5-8.18-31.63-2-1.1-3.79-2.5-5.68-3.76Z"/><path class="cls-2" d="M638,565.76c5.67-9.5,9.52-10.65,19.42-6C651.83,565.29,644,562.58,638,565.76Z"/><path class="cls-2" d="M535.14,624.26c-1.68-8.22,1.73-12.6,6.2-16.6Z"/><path class="cls-2" d="M728,966.24l-4.27,3.19-1.15-1.29,3.65-3.9Z"/><path class="cls-3" d="M684.78,460.93c-6,1-12.47,2.81-14.11-2.37-1.86-5.9,5.24-7.78,10.6-11.53Z"/><path class="cls-3" d="M692,451.87c-1.34,1.06-2.13,2-3.13,2.32-.44.13-1.28-1.11-1.94-1.72a12.39,12.39,0,0,1,2.43-2.41C689.65,449.88,690.67,450.94,692,451.87Z"/><path class="cls-3" d="M631.68,621.14l4.81-1.39.45,1.52-4.81,1.38Z"/><path class="cls-3" d="M518,489.55c-6-.32-10.6-1.08-11.8-5.91-1.16-4.63,2.55-6.85,7.2-8.72Z"/></svg>